# xmcd CD database file
#
# Track frame offsets:
#	150
#	21065
#	36292
#	47022
#	57342
#	71597
#	84067
#	94912
#	111685
#	133175
#	150670
#
# Disc length: 2326 seconds
#
# Revision: 0
# Processed by: cddbd v1.4PL0 Copyright (c) Steve Scherf et al.
# Submitted via: CDex 1.50beta9
#
DISCID=9209140b
DTITLE=La Plateria - Bailes de Salon Con La Plateria
DYEAR=1900
DGENRE=Salsa
TTITLE0=Corazon Loco
TTITLE1=Camarera De Mi Amor
TTITLE2=Bajo El Cielo De Palma
TTITLE3=Americanos
TTITLE4=Los Bosques De Viena
TTITLE5=Miniaturas
TTITLE6=Bailando El Twist
TTITLE7=El Tren De La Costa
TTITLE8=Me Voy Pal Pueblo
TTITLE9=Estremecete
TTITLE10=Pedro Navaja
EXTD=
EXTT0=
EXTT1=
EXTT2=
EXTT3=
EXTT4=
EXTT5=
EXTT6=
EXTT7=
EXTT8=
EXTT9=
EXTT10=
PLAYORDER=
